<svg xmlns="http://www.w3.org/2000/svg" viewBox="0 0 32 32"><defs><style>.cls-1{fill:#231f20;}</style></defs><g id="barcode"><path class="cls-1" d="M8,3H4A1,1,0,0,0,3,4V8A1,1,0,0,0,5,8V5H8A1,1,0,0,0,8,3Z"/><path class="cls-1" d="M28,3H24a1,1,0,0,0,0,2h3V8a1,1,0,0,0,2,0V4A1,1,0,0,0,28,3Z"/><path class="cls-1" d="M8,27H5V24a1,1,0,0,0-2,0v4a1,1,0,0,0,1,1H8a1,1,0,0,0,0-2Z"/><path class="cls-1" d="M28,23a1,1,0,0,0-1,1v3H24a1,1,0,0,0,0,2h4a1,1,0,0,0,1-1V24A1,1,0,0,0,28,23Z"/><path class="cls-1" d="M8,8A1,1,0,0,0,7,9V23a1,1,0,0,0,2,0V9A1,1,0,0,0,8,8Z"/><path class="cls-1" d="M12,8a1,1,0,0,0-1,1V19a1,1,0,0,0,2,0V9A1,1,0,0,0,12,8Z"/><path class="cls-1" d="M16,8a1,1,0,0,0-1,1V23a1,1,0,0,0,2,0V9A1,1,0,0,0,16,8Z"/><path class="cls-1" d="M20,8a1,1,0,0,0-1,1V23a1,1,0,0,0,2,0V9A1,1,0,0,0,20,8Z"/><path class="cls-1" d="M24,20a1,1,0,0,0,1-1V9a1,1,0,0,0-2,0V19A1,1,0,0,0,24,20Z"/><path class="cls-1" d="M24,24a1,1,0,0,0,1-1V22a1,1,0,0,0-2,0v1A1,1,0,0,0,24,24Z"/><path class="cls-1" d="M12,21a1,1,0,0,0-1,1v1a1,1,0,0,0,2,0V22A1,1,0,0,0,12,21Z"/></g></svg>